<svg width="153" height="41" viewBox="0 0 153 41" fill="none" xmlns="http://www.w3.org/2000/svg">
<path d="M143.715 30.237C142.092 30.237 140.633 29.8682 139.339 29.1306C138.044 28.3931 137.019 27.3236 136.265 25.9223C135.511 24.5209 135.134 22.8287 135.134 20.8455C135.134 18.8459 135.511 17.1454 136.265 15.7441C137.019 14.3345 138.044 13.2651 139.339 12.5357C140.633 11.7982 142.092 11.4294 143.715 11.4294C145.337 11.4294 146.796 11.7982 148.091 12.5357C149.386 13.2651 150.406 14.3345 151.152 15.7441C151.906 17.1454 152.283 18.8459 152.283 20.8455C152.283 22.8369 151.906 24.5332 151.152 25.9346C150.406 27.3359 149.386 28.4054 148.091 29.1429C146.796 29.8723 145.337 30.237 143.715 30.237ZM143.715 26.8196C144.657 26.8196 145.477 26.5902 146.173 26.1313C146.87 25.6723 147.407 25.0003 147.783 24.1153C148.169 23.222 148.361 22.1321 148.361 20.8455C148.361 19.5507 148.169 18.4566 147.783 17.5634C147.407 16.6701 146.87 15.994 146.173 15.5351C145.477 15.0762 144.657 14.8467 143.715 14.8467C142.78 14.8467 141.965 15.0762 141.268 15.5351C140.572 15.994 140.027 16.6701 139.634 17.5634C139.248 18.4566 139.056 19.5507 139.056 20.8455C139.056 22.1321 139.248 23.222 139.634 24.1153C140.027 25.0003 140.572 25.6723 141.268 26.1313C141.965 26.5902 142.78 26.8196 143.715 26.8196Z" fill="white"/>
<path d="M133.106 11.6752V29.9911H129.763L121.809 18.473H121.65V29.9911H117.79V11.6752H121.182L129.087 23.1933H129.246V11.6752H133.106Z" fill="white"/>
<path d="M107.181 30.237C105.559 30.237 104.1 29.8682 102.805 29.1306C101.51 28.3931 100.486 27.3236 99.7319 25.9223C98.978 24.5209 98.601 22.8287 98.601 20.8455C98.601 18.8459 98.978 17.1454 99.7319 15.7441C100.486 14.3345 101.51 13.2651 102.805 12.5357C104.1 11.7982 105.559 11.4294 107.181 11.4294C108.804 11.4294 110.263 11.7982 111.557 12.5357C112.852 13.2651 113.872 14.3345 114.618 15.7441C115.372 17.1454 115.749 18.8459 115.749 20.8455C115.749 22.8369 115.372 24.5332 114.618 25.9346C113.872 27.3359 112.852 28.4054 111.557 29.1429C110.263 29.8723 108.804 30.237 107.181 30.237ZM107.181 26.8196C108.124 26.8196 108.943 26.5902 109.64 26.1313C110.336 25.6723 110.873 25.0003 111.25 24.1153C111.635 23.222 111.828 22.1321 111.828 20.8455C111.828 19.5507 111.635 18.4566 111.25 17.5634C110.873 16.6701 110.336 15.994 109.64 15.5351C108.943 15.0762 108.124 14.8467 107.181 14.8467C106.247 14.8467 105.432 15.0762 104.735 15.5351C104.038 15.994 103.493 16.6701 103.1 17.5634C102.715 18.4566 102.522 19.5507 102.522 20.8455C102.522 22.1321 102.715 23.222 103.1 24.1153C103.493 25.0003 104.038 25.6723 104.735 26.1313C105.432 26.5902 106.247 26.8196 107.181 26.8196Z" fill="white"/>
<path d="M88.3245 30.237C86.7018 30.237 85.2431 29.8682 83.9483 29.1306C82.6535 28.3931 81.6291 27.3236 80.8752 25.9223C80.1212 24.5209 79.7443 22.8287 79.7443 20.8455C79.7443 18.8459 80.1212 17.1454 80.8752 15.7441C81.6291 14.3345 82.6535 13.2651 83.9483 12.5357C85.2431 11.7982 86.7018 11.4294 88.3245 11.4294C89.9471 11.4294 91.4058 11.7982 92.7006 12.5357C93.9954 13.2651 95.0157 14.3345 95.7614 15.7441C96.5154 17.1454 96.8924 18.8459 96.8924 20.8455C96.8924 22.8369 96.5154 24.5332 95.7614 25.9346C95.0157 27.3359 93.9954 28.4054 92.7006 29.1429C91.4058 29.8723 89.9471 30.237 88.3245 30.237ZM88.3245 26.8196C89.2669 26.8196 90.0864 26.5902 90.783 26.1313C91.4795 25.6723 92.0163 25.0003 92.3933 24.1153C92.7785 23.222 92.971 22.1321 92.971 20.8455C92.971 19.5507 92.7785 18.4566 92.3933 17.5634C92.0163 16.6701 91.4795 15.994 90.783 15.5351C90.0864 15.0762 89.2669 14.8467 88.3245 14.8467C87.3902 14.8467 86.5748 15.0762 85.8782 15.5351C85.1817 15.994 84.6367 16.6701 84.2433 17.5634C83.8582 18.4566 83.6656 19.5507 83.6656 20.8455C83.6656 22.1321 83.8582 23.222 84.2433 24.1153C84.6367 25.0003 85.1817 25.6723 85.8782 26.1313C86.5748 26.5902 87.3902 26.8196 88.3245 26.8196Z" fill="white"/>
<path d="M65.4726 29.9911V11.6752H77.8143V14.8713H69.3325V19.1737H77.1751V22.3083H69.3325V26.7951H77.8389V29.9911H65.4726Z" fill="white"/>
<path d="M52 29.9911V11.6752H55.8599V26.7951H63.7148V29.9911H52Z" fill="white"/>
<rect x="0.333333" y="0.833333" width="39.3333" height="39.3333" rx="19.6667" fill="white" fill-opacity="0.01"/>
<rect x="0.333333" y="0.833333" width="39.3333" height="39.3333" rx="19.6667" stroke="white" stroke-width="0.666667"/>
<g filter="url(#filter0_d_6_88)">
<path d="M23.2648 17.2182C23.1788 17.2043 23.1196 17.1873 23.0601 17.1866C22.6529 17.1822 22.2424 17.1454 21.8394 17.1849C20.1667 17.3481 18.8909 18.1512 18.1232 19.6579C17.3114 21.251 17.074 22.9611 17.3675 24.7148C17.7988 27.2932 19.3048 29.0493 21.688 30.0645C22.1696 30.2696 22.6897 30.3842 23.189 30.5492C24.1437 30.8638 24.927 31.3978 25.3902 32.3212C25.7331 33.0045 25.8126 33.733 25.7215 34.5C25.7504 34.482 25.7708 34.4738 25.7854 34.4592C26.3755 33.8701 26.8656 33.2126 27.2071 32.4457C27.536 31.7073 27.5047 30.943 27.3898 30.1754C27.3173 29.6917 27.2034 29.2146 27.1014 28.7003C27.4683 28.7197 27.8581 28.7404 28.2554 28.7615C28.1856 28.6088 28.1227 28.4323 28.0289 28.2738C27.8534 27.9772 27.6779 27.6779 27.4714 27.4031C26.7946 26.5018 25.8871 25.897 24.8851 25.412C24.3559 25.1559 23.8294 24.8896 23.322 24.5934C22.6965 24.2277 22.2754 23.6781 22.0632 22.9849C21.7006 21.8013 21.6142 20.5929 21.8309 19.3739C21.9921 18.4668 22.3679 17.6818 23.2645 17.2186L23.2648 17.2182ZM9.85257 12.1464C9.85257 12.1936 9.84917 12.2263 9.85291 12.2579C9.97841 13.2558 10.5063 13.9653 11.4079 14.3949C12.1375 14.7425 12.9198 14.8146 13.7143 14.7887C14.7397 14.7554 15.7373 14.5503 16.7216 14.2741C19.1065 13.6051 21.5261 13.2392 24.01 13.4422C25.0583 13.5279 26.0868 13.715 27.0772 14.0813C27.1962 14.1252 27.3136 14.1742 27.4316 14.2207C26.5919 13.3378 26.0375 12.2974 25.6259 11.1672C25.4188 10.5978 25.1467 10.0557 24.7947 9.55738C24.2032 8.72 23.4199 8.16187 22.4036 7.98229C21.236 7.77617 20.0595 7.74454 18.8834 7.91698C18.5617 7.96426 18.2447 8.04215 17.8933 8.11255C18.0848 8.26254 18.2457 8.3758 18.3909 8.50607C18.5341 8.63429 18.6616 8.77987 18.7895 8.91115C18.5695 8.95809 18.3678 8.97543 18.1868 9.04584C17.8926 9.16046 17.6012 9.2914 17.3277 9.4482C16.4339 9.9611 15.6427 10.6141 14.8714 11.2916C14.2935 11.7994 13.6816 12.2555 12.9596 12.5378C11.8654 12.9654 10.8236 12.929 9.85223 12.1457L9.85257 12.1464ZM19.0126 16.0917C18.9681 16.0965 18.9222 16.0965 18.8793 16.107C18.5552 16.1873 18.2256 16.2509 17.909 16.3543C16.2043 16.9101 14.8057 17.9127 13.6507 19.2766C12.7684 20.3187 11.8678 21.3452 10.9719 22.3758C10.8586 22.506 10.7243 22.6183 10.578 22.7598C11.0369 22.8176 11.4732 22.7554 11.8617 22.9186C11.7787 23.1961 11.6855 23.4465 11.6297 23.705C11.3882 24.8277 11.5409 25.9212 11.8773 27.0045C11.9892 27.3643 12.0831 27.7391 12.1147 28.1129C12.1905 29.0139 11.9035 29.753 11.0528 30.1927C11.0488 30.1948 11.0522 30.2121 11.0522 30.2342C11.2743 30.2546 11.4984 30.2812 11.7232 30.2944C12.6062 30.3458 13.4806 30.3019 14.3245 30.0063C15.1656 29.7118 15.7982 29.1955 16.0659 28.3102C16.1975 27.8748 16.2111 27.4293 16.1682 26.98C16.106 26.3263 15.9074 25.7076 15.6961 25.0903C15.2635 23.8254 15.1026 22.5336 15.3537 21.2078C15.638 19.7055 16.3828 18.4528 17.4478 17.3767C17.9229 16.8965 18.447 16.4761 19.0123 16.0914L19.0126 16.0917ZM16.7998 15.5207C16.7981 15.5115 16.7961 15.5023 16.7944 15.4931C16.7583 15.4931 16.7223 15.4921 16.6862 15.4931C15.0996 15.538 13.5983 15.9377 12.1633 16.5985C11.5879 16.8635 11.0369 17.1832 10.4563 17.4352C9.32062 17.928 8.13633 18.125 6.90442 17.8944C6.633 17.8434 6.36839 17.7549 6.08813 17.6804C6.61056 18.4297 7.22991 19.0566 8.04144 19.4735C8.80534 19.866 9.6036 19.9562 10.4318 19.7205C11.0467 19.5453 11.5807 19.2188 12.0735 18.8195C12.6633 18.3416 13.2463 17.8546 13.8456 17.3893C14.6557 16.7604 15.488 16.1611 16.4073 15.6969C16.5352 15.6322 16.6689 15.5795 16.8002 15.5214L16.7998 15.5207ZM31.3202 23.2353C29.0223 23.3594 26.8956 22.8142 24.8841 21.7265C25.2875 23.0285 26.2392 23.5713 27.486 23.721C27.3425 23.8852 27.2235 24.0213 27.1153 24.1451C27.7802 24.2185 28.4288 24.2757 29.073 24.3655C29.6499 24.4457 30.059 24.7464 30.194 25.346C30.1968 25.359 30.2114 25.3688 30.2291 25.3909C30.9573 24.8712 31.3505 24.1913 31.3205 23.2353H31.3202ZM29.2162 17.372C29.4271 17.7226 29.6342 18.0178 29.9566 18.2063C30.0566 18.2648 30.1747 18.3039 30.2893 18.3246C30.9192 18.4372 31.1957 19.1399 30.7729 19.6201C30.6185 19.7956 30.4012 19.9545 30.1818 20.0276C29.5176 20.249 28.84 20.4323 28.1635 20.6153C27.8724 20.6939 27.5714 20.7354 27.2752 20.7939C27.4932 20.802 27.7074 20.785 27.9217 20.7721C28.5662 20.7327 29.2104 20.6752 29.8556 20.6619C30.3668 20.6514 30.8134 20.8252 31.1018 21.2867C31.1202 21.316 31.1416 21.3435 31.161 21.3707C31.161 21.0167 31.1573 20.6714 31.1617 20.3262C31.1722 19.4906 31.2994 18.6797 31.6868 17.926C31.7899 17.7257 31.7964 17.692 31.5787 17.6165C31.2715 17.51 30.9515 17.4094 30.6304 17.3815C30.1767 17.342 29.7172 17.3716 29.2159 17.3716L29.2162 17.372ZM22.1744 15.2585C22.1778 15.2676 22.1809 15.2772 22.1843 15.2863C22.655 15.4088 23.1288 15.5203 23.5961 15.6554C24.6341 15.9557 25.6831 16.237 26.5228 17.0179C26.5228 16.9706 26.5252 16.9448 26.5225 16.9193C26.4578 16.3006 26.3136 15.705 26.0361 15.1438C25.9742 15.0187 25.8977 14.9745 25.764 14.9663C24.8198 14.9061 23.8848 15.004 22.9519 15.1289C22.6917 15.1636 22.4339 15.2149 22.1747 15.2585H22.1744Z" fill="#020101"/>
<path d="M23.2648 17.2182C22.3683 17.6818 21.9924 18.4664 21.8312 19.3735C21.6146 20.5925 21.701 21.8006 22.0635 22.9846C22.2758 23.6781 22.6968 24.2274 23.3223 24.593C23.8298 24.8896 24.3559 25.1556 24.8855 25.4117C25.8875 25.8967 26.7953 26.5014 27.4718 27.4027C27.6782 27.6775 27.8541 27.9768 28.0292 28.2734C28.1228 28.4319 28.186 28.6084 28.2557 28.7612C27.8585 28.7401 27.4687 28.7193 27.1017 28.6999C27.2038 29.2142 27.318 29.6914 27.3901 30.175C27.5051 30.9427 27.5364 31.7069 27.2075 32.4453C26.866 33.2123 26.3759 33.8697 25.7858 34.4588C25.7715 34.4731 25.7508 34.4813 25.7219 34.4996C25.813 33.7327 25.7334 33.0041 25.3906 32.3208C24.9273 31.3978 24.144 30.8638 23.1893 30.5488C22.6897 30.3842 22.17 30.2696 21.6884 30.0641C19.3052 29.0489 17.7991 27.2929 17.3679 24.7144C17.0747 22.9611 17.3121 21.251 18.1236 19.6575C18.8912 18.1508 20.167 17.3478 21.8397 17.1845C22.2428 17.1451 22.6533 17.1818 23.0604 17.1862C23.1199 17.1869 23.1791 17.2039 23.2652 17.2179L23.2648 17.2182Z" fill="white"/>
<path d="M9.85261 12.1464C10.8236 12.9296 11.8658 12.9664 12.9599 12.5385C13.682 12.2562 14.2942 11.8001 14.8717 11.2923C15.6428 10.6148 16.4342 9.96177 17.3281 9.44887C17.6015 9.29174 17.893 9.16113 18.1872 9.04651C18.3682 8.9761 18.5699 8.95876 18.7899 8.91182C18.662 8.78054 18.5345 8.63497 18.3913 8.50674C18.2457 8.37648 18.0848 8.26322 17.8937 8.11322C18.245 8.04282 18.562 7.96493 18.8838 7.91766C20.0599 7.74522 21.2364 7.77685 22.404 7.98296C23.4203 8.1622 24.2032 8.72068 24.795 9.55805C25.1471 10.0563 25.4192 10.5981 25.6263 11.1678C26.0378 12.298 26.5922 13.3381 27.432 14.2214C27.314 14.1748 27.1966 14.1258 27.0776 14.082C26.0872 13.7157 25.0586 13.5286 24.0104 13.4429C21.5265 13.2398 19.1069 13.6058 16.722 14.2748C15.7377 14.551 14.7401 14.7561 13.7147 14.7894C12.9201 14.8153 12.1379 14.7432 11.4083 14.3956C10.507 13.966 9.97879 13.2565 9.85329 12.2586C9.8492 12.227 9.85295 12.1943 9.85295 12.147L9.85261 12.1464Z" fill="white"/>
<path d="M19.0127 16.0917C18.4474 16.4764 17.9233 16.8968 17.4482 17.377C16.3832 18.4532 15.6384 19.7055 15.354 21.2081C15.103 22.5339 15.2639 23.8257 15.6965 25.0906C15.9078 25.7079 16.106 26.3266 16.1686 26.9803C16.2115 27.4296 16.1979 27.8755 16.0662 28.3105C15.7986 29.1958 15.166 29.7121 14.3248 30.0067C13.481 30.3022 12.6069 30.3461 11.7236 30.2948C11.4988 30.2815 11.2747 30.255 11.0526 30.2346C11.0526 30.2125 11.0488 30.1951 11.0532 30.1931C11.9039 29.7533 12.1909 29.0142 12.1151 28.1132C12.0835 27.7395 11.9896 27.3646 11.8777 27.0048C11.5413 25.9215 11.3886 24.828 11.6301 23.7053C11.6855 23.4468 11.779 23.1965 11.862 22.9189C11.4736 22.7557 11.0373 22.8179 10.5784 22.7601C10.7243 22.619 10.8587 22.5067 10.9723 22.3761C11.8682 21.3456 12.7688 20.3191 13.6511 19.277C14.8061 17.9131 16.2043 16.9107 17.9094 16.3546C18.226 16.2513 18.5556 16.1876 18.8797 16.1074C18.9229 16.0968 18.9685 16.0968 19.013 16.0921L19.0127 16.0917Z" fill="white"/>
<path d="M16.8002 15.5207C16.6692 15.5788 16.5352 15.6316 16.4073 15.6962C15.4877 16.1608 14.6557 16.7597 13.8456 17.3886C13.2459 17.8539 12.6633 18.341 12.0735 18.8188C11.5804 19.2181 11.0467 19.5446 10.4318 19.7198C9.6036 19.9555 8.80534 19.8654 8.04144 19.4729C7.23025 19.0562 6.6109 18.4294 6.08813 17.6798C6.36839 17.7542 6.63301 17.843 6.90442 17.8937C8.13633 18.1243 9.32062 17.9274 10.4563 17.4345C11.0369 17.1825 11.5879 16.8631 12.1633 16.5978C13.598 15.937 15.0996 15.5374 16.6862 15.4925C16.7223 15.4914 16.7583 15.4925 16.7944 15.4925C16.7961 15.5016 16.7981 15.5108 16.7998 15.52L16.8002 15.5207Z" fill="white"/>
<path d="M31.3202 23.2353C31.3501 24.1913 30.957 24.8712 30.2288 25.3909C30.2111 25.3692 30.1968 25.359 30.1937 25.346C30.0587 24.7461 29.6495 24.4454 29.0727 24.3655C28.4285 24.276 27.7802 24.2186 27.115 24.1451C27.2231 24.0213 27.3422 23.8852 27.4857 23.721C26.2388 23.5713 25.2872 23.0285 24.8838 21.7265C26.8953 22.8142 29.022 23.3594 31.3199 23.2353H31.3202Z" fill="white"/>
<path d="M29.2162 17.3723C29.7176 17.3723 30.1771 17.3431 30.6308 17.3822C30.9519 17.4101 31.2716 17.5108 31.579 17.6172C31.7964 17.6924 31.7902 17.726 31.6872 17.9267C31.2998 18.6804 31.1726 19.4913 31.1621 20.3269C31.1576 20.6722 31.1614 21.0174 31.1614 21.3714C31.142 21.3439 31.1202 21.3167 31.1022 21.2874C30.8138 20.8262 30.3672 20.6521 29.856 20.6626C29.2108 20.6759 28.5666 20.733 27.9221 20.7728C27.7078 20.7861 27.4935 20.8031 27.2755 20.7946C27.5721 20.7361 27.8731 20.6946 28.1639 20.616C28.8404 20.4331 29.5179 20.2497 30.1822 20.0283C30.4019 19.9552 30.6189 19.7963 30.7733 19.6208C31.1961 19.1406 30.9195 18.4376 30.2896 18.3253C30.175 18.3049 30.057 18.2655 29.957 18.207C29.6346 18.0185 29.4274 17.7233 29.2166 17.3727L29.2162 17.3723Z" fill="white"/>
<path d="M22.1744 15.2588C22.4332 15.2153 22.6914 15.1639 22.9516 15.1292C23.8845 15.0044 24.8195 14.9064 25.7637 14.9666C25.897 14.9751 25.9739 15.0194 26.0358 15.1442C26.3133 15.7057 26.4575 16.3013 26.5221 16.9196C26.5249 16.9451 26.5225 16.971 26.5225 17.0182C25.6831 16.2373 24.6342 15.9561 23.5958 15.6557C23.1288 15.5207 22.655 15.4091 22.1839 15.2867C22.1805 15.2775 22.1775 15.268 22.1741 15.2588H22.1744Z" fill="white"/>
</g>
<defs>
<filter id="filter0_d_6_88" x="6.08813" y="7.80536" width="25.6682" height="27.1946" filterUnits="userSpaceOnUse" color-interpolation-filters="sRGB">
<feFlood flood-opacity="0" result="BackgroundImageFix"/>
<feColorMatrix in="SourceAlpha" type="matrix" values="0 0 0 0 0 0 0 0 0 0 0 0 0 0 0 0 0 0 127 0" result="hardAlpha"/>
<feOffset dy="0.5"/>
<feComposite in2="hardAlpha" operator="out"/>
<feColorMatrix type="matrix" values="0 0 0 0 0 0 0 0 0 0 0 0 0 0 0 0 0 0 0.2 0"/>
<feBlend mode="normal" in2="BackgroundImageFix" result="effect1_dropShadow_6_88"/>
<feBlend mode="normal" in="SourceGraphic" in2="effect1_dropShadow_6_88" result="shape"/>
</filter>
</defs>
</svg>
