<svg width="140" height="140" viewBox="0 0 140 140" fill="none" xmlns="http://www.w3.org/2000/svg">
<path d="M52.5 115V45C52.5 43.88 51.62 43 50.5 43C49.38 43 48.5 43.88 48.5 45V115C48.5 116.12 49.38 117 50.5 117C51.62 117 52.5 116.12 52.5 115ZM32.5 115V37C32.5 35.88 31.62 35 30.5 35C29.38 35 28.5 35.88 28.5 37V115C28.5 116.12 29.38 117 30.5 117C31.62 117 32.5 116.12 32.5 115ZM72.5 115V29C72.5 27.88 71.62 27 70.5 27C69.38 27 68.5 27.88 68.5 29V115C68.5 116.12 69.38 117 70.5 117C71.62 117 72.5 116.12 72.5 115ZM92.5 115V41C92.5 39.88 91.62 39 90.5 39C89.38 39 88.5 39.88 88.5 41V115C88.5 116.12 89.38 117 90.5 117C91.62 117 92.5 116.12 92.5 115ZM112.5 115V25C112.5 23.88 111.62 23 110.5 23C109.38 23 108.5 23.88 108.5 25V115C108.5 116.12 109.38 117 110.5 117C111.62 117 112.5 116.12 112.5 115Z" fill="#020101"/>
</svg>
