<svg width="82" height="82" viewBox="0 0 82 82" fill="none" xmlns="http://www.w3.org/2000/svg">
<path d="M51.7945 30.1546C51.5363 30.1128 51.3588 30.0618 51.1802 30.0598C49.9589 30.0465 48.7273 29.9363 47.5182 30.0547C42.5001 30.5444 38.6727 32.9535 36.3698 37.4737C33.9342 42.253 33.222 47.3834 34.1025 52.6443C35.3963 60.3797 39.9145 65.6478 47.0641 68.6935C48.5089 69.3088 50.0691 69.6527 51.5669 70.1475C54.4311 71.0914 56.781 72.6933 58.1707 75.4636C59.1992 77.5135 59.438 79.6991 59.1645 82C59.2512 81.9459 59.3125 81.9214 59.3563 81.8775C61.1267 80.1103 62.597 78.1379 63.6214 75.837C64.6081 73.6218 64.5142 71.3291 64.1694 69.0262C63.952 67.5752 63.6102 66.1436 63.3041 64.6009C64.4051 64.659 65.5744 64.7213 66.7662 64.7845C66.557 64.3264 66.3682 63.7968 66.0866 63.3213C65.5601 62.4316 65.0336 61.5337 64.4142 60.7092C62.3837 58.0053 59.6614 56.1911 56.6555 54.7361C55.0678 53.9677 53.4883 53.1688 51.9659 52.2801C50.0895 51.1832 48.8263 49.5343 48.1896 47.4548C47.1019 43.904 46.8427 40.2786 47.4927 36.6217C47.9763 33.9004 49.1038 31.5454 51.7935 30.1557L51.7945 30.1546ZM11.5578 14.9391C11.5578 15.0809 11.5475 15.1789 11.5588 15.2738C11.9353 18.2675 13.5189 20.396 16.2238 21.6847C18.4125 22.7275 20.7593 22.9438 23.1429 22.8662C26.2193 22.7662 29.212 22.151 32.1649 21.3224C39.3196 19.3154 46.5784 18.2175 54.0301 18.8266C57.1748 19.0838 60.2604 19.645 63.2317 20.7439C63.5888 20.8755 63.9408 21.0225 64.2949 21.1622C61.7756 18.5134 60.1124 15.3921 58.8778 12.0015C58.2564 10.2934 57.4401 8.66695 56.384 7.17213C54.6096 4.66001 52.2598 2.98561 49.2109 2.44686C45.7081 1.82852 42.1786 1.73363 38.6503 2.25095C37.685 2.39278 36.734 2.62644 35.68 2.83766C36.2545 3.28763 36.7371 3.62741 37.1728 4.01821C37.6023 4.40288 37.985 4.8396 38.3686 5.23345C37.7085 5.37426 37.1034 5.4263 36.5606 5.63752C35.678 5.98138 34.8035 6.37421 33.9831 6.8446C31.3016 8.3833 28.9283 10.3424 26.6141 12.3749C24.8805 13.8983 23.0449 15.2666 20.8787 16.1135C17.5962 17.3961 14.4709 17.2869 11.5567 14.937L11.5578 14.9391ZM39.038 26.7752C38.9043 26.7895 38.7666 26.7895 38.638 26.8211C37.6656 27.0619 36.6769 27.2528 35.7269 27.5629C30.6129 29.2302 26.4172 32.2382 22.9521 36.3298C20.3053 39.4562 17.6034 42.5357 14.9157 45.6273C14.576 46.0181 14.1729 46.3549 13.7342 46.7793C15.1106 46.9528 16.4198 46.7661 17.585 47.2558C17.336 48.0884 17.0565 48.8394 16.8891 49.6149C16.1647 52.9831 16.6228 56.2635 17.6319 59.5134C17.9676 60.5929 18.2492 61.7173 18.3441 62.8387C18.5717 65.5416 17.7105 67.7589 15.1586 69.0782C15.1463 69.0843 15.1565 69.1363 15.1565 69.2027C15.8228 69.2639 16.4953 69.3435 17.1697 69.3833C19.8186 69.5374 22.4419 69.4057 24.9734 68.519C27.4967 67.6354 29.3946 66.0865 30.1976 63.4305C30.5925 62.1245 30.6333 60.7878 30.5047 59.4399C30.318 57.4788 29.7221 55.6227 29.0885 53.7708C27.7906 49.9761 27.308 46.1008 28.061 42.1234C28.914 37.6165 31.1486 33.8585 34.3433 30.6301C35.7688 29.1894 37.3411 27.9282 39.037 26.7742L39.038 26.7752ZM32.3996 25.062C32.3944 25.0345 32.3883 25.0069 32.3832 24.9794C32.2751 24.9794 32.1669 24.9763 32.0588 24.9794C27.2988 25.1141 22.7949 26.313 18.4901 28.2956C16.7636 29.0904 15.1106 30.0495 13.3689 30.8056C9.96192 32.2841 6.40904 32.8749 2.71331 32.1831C1.89906 32.0301 1.10522 31.7648 0.26445 31.5413C1.83172 33.7892 3.68979 35.6697 6.12436 36.9206C8.41608 38.0981 10.8109 38.3685 13.2954 37.6614C15.1402 37.1359 16.7422 36.1564 18.2207 34.9585C19.99 33.5249 21.7389 32.0637 23.5367 30.6679C25.9672 28.7812 28.464 26.9834 31.2221 25.5906C31.6057 25.3967 32.0067 25.2386 32.4006 25.0641L32.3996 25.062ZM75.9606 48.2058C69.0671 48.5782 62.6868 46.9426 56.6524 43.6795C57.8625 47.5854 60.7175 49.2139 64.4581 49.6628C64.0275 50.1557 63.6704 50.5638 63.3459 50.9352C65.3407 51.1556 67.2865 51.327 69.2191 51.5964C70.9496 51.8372 72.1771 52.7392 72.5822 54.5381C72.5904 54.5769 72.6342 54.6065 72.6873 54.6728C74.8719 53.1137 76.0514 51.074 75.9616 48.2058H75.9606ZM69.6487 30.6158C70.2813 31.6678 70.9027 32.5535 71.87 33.1188C72.17 33.2943 72.524 33.4116 72.8679 33.4739C74.7576 33.8116 75.5872 35.9197 74.3188 37.3604C73.8556 37.8869 73.2036 38.3634 72.5455 38.5828C70.5527 39.247 68.5202 39.797 66.4907 40.346C65.6172 40.5817 64.7142 40.7062 63.8255 40.8817C64.4796 40.9061 65.1224 40.8551 65.7652 40.8164C67.6988 40.698 69.6313 40.5256 71.5669 40.4858C73.1005 40.4541 74.4403 40.9755 75.3055 42.3602C75.3606 42.4479 75.4249 42.5306 75.4831 42.6122C75.4831 41.55 75.4719 40.5143 75.4851 39.4787C75.5167 36.9716 75.8984 34.5391 77.0605 32.278C77.3697 31.677 77.3891 31.576 76.7361 31.3495C75.8147 31.0301 74.8545 30.7281 73.8913 30.6444C72.5302 30.5261 71.1517 30.6148 69.6477 30.6148L69.6487 30.6158ZM48.5232 24.2754C48.5334 24.3029 48.5426 24.3315 48.5528 24.359C49.965 24.7263 51.3863 25.061 52.7883 25.4661C55.9024 26.3671 59.0492 27.2109 61.5685 29.5537C61.5685 29.4118 61.5756 29.3343 61.5675 29.2578C61.3736 27.4017 60.941 25.6151 60.1083 23.9315C59.9226 23.556 59.6931 23.4234 59.2921 23.3989C56.4596 23.2183 53.6546 23.5121 50.8558 23.8866C50.0752 23.9907 49.3018 24.1447 48.5242 24.2754H48.5232Z" fill="#020101"/>
<path d="M51.7945 30.1547C49.1049 31.5454 47.9774 33.8994 47.4937 36.6207C46.8437 40.2776 47.1029 43.9019 48.1906 47.4538C48.8273 49.5343 50.0905 51.1822 51.967 52.2791C53.4893 53.1688 55.0678 53.9667 56.6565 54.7351C59.6625 56.1901 62.3858 58.0043 64.4153 60.7082C65.0347 61.5327 65.5622 62.4306 66.0877 63.3203C66.3683 63.7958 66.5581 64.3254 66.7672 64.7835C65.5755 64.7203 64.4061 64.658 63.3052 64.5999C63.6113 66.1426 63.9541 67.5742 64.1704 69.0251C64.5153 71.3281 64.6092 73.6208 63.6225 75.836C62.5981 78.1369 61.1277 80.1093 59.3574 81.8765C59.3145 81.9194 59.2523 81.9439 59.1656 81.999C59.439 79.6981 59.2003 77.5125 58.1717 75.4626C56.782 72.6933 54.4321 71.0914 51.568 70.1465C50.0691 69.6527 48.51 69.3088 47.0652 68.6925C39.9155 65.6467 35.3974 60.3786 34.1036 52.6433C33.224 47.3834 33.9362 42.253 36.3708 37.4727C38.6737 32.9525 42.5011 30.5434 47.5192 30.0536C48.7283 29.9353 49.9599 30.0455 51.1813 30.0588C51.3598 30.0608 51.5374 30.1118 51.7955 30.1536L51.7945 30.1547Z" fill="white"/>
<path d="M11.5578 14.9391C14.4709 17.289 17.5973 17.3992 20.8797 16.1156C23.046 15.2687 24.8826 13.9004 26.6152 12.377C28.9283 10.3444 31.3027 8.38534 33.9842 6.84664C34.8045 6.37524 35.679 5.98342 36.5616 5.63956C37.1044 5.42835 37.7095 5.37631 38.3697 5.2355C37.986 4.84164 37.6034 4.40493 37.1738 4.02025C36.7371 3.62946 36.2545 3.28968 35.681 2.8397C36.7351 2.62849 37.686 2.39483 38.6513 2.253C42.1797 1.73568 45.7091 1.83057 49.212 2.4489C52.2608 2.98663 54.6097 4.66206 56.3851 7.17417C57.4412 8.669 58.2574 10.2944 58.8788 12.0035C60.1135 15.3942 61.7767 18.5144 64.2959 21.1643C63.9418 21.0245 63.5898 20.8776 63.2327 20.7459C60.2614 19.647 57.1759 19.0858 54.0311 18.8287C46.5795 18.2195 39.3206 19.3174 32.1659 21.3245C29.213 22.153 26.2203 22.7683 23.1439 22.8683C20.7604 22.9458 18.4135 22.7295 16.2249 21.6867C13.5209 20.398 11.9363 18.2695 11.5598 15.2758C11.5476 15.1809 11.5588 15.083 11.5588 14.9411L11.5578 14.9391Z" fill="white"/>
<path d="M39.038 26.7752C37.3422 27.9292 35.7698 29.1904 34.3444 30.6311C31.1496 33.8595 28.915 37.6165 28.062 42.1244C27.309 46.1018 27.7916 49.9771 29.0895 53.7718C29.7232 55.6237 30.318 57.4798 30.5058 59.4409C30.6343 60.7888 30.5935 62.1265 30.1987 63.4315C29.3956 66.0875 27.4978 67.6364 24.9744 68.52C22.4429 69.4067 19.8206 69.5383 17.1707 69.3843C16.4963 69.3445 15.8239 69.2649 15.1576 69.2037C15.1576 69.1373 15.1464 69.0853 15.1596 69.0792C17.7115 67.7599 18.5727 65.5426 18.3452 62.8397C18.2503 61.7183 17.9687 60.5939 17.633 59.5143C16.6238 56.2645 16.1657 52.9841 16.8901 49.6159C17.0565 48.8404 17.3371 48.0894 17.586 47.2568C16.4208 46.767 15.1117 46.9538 13.7352 46.7803C14.1729 46.3568 14.576 46.0201 14.9168 45.6283C17.6044 42.5366 20.3063 39.4572 22.9531 36.3308C26.4182 32.2392 30.6129 29.2322 35.728 27.5639C36.6779 27.2537 37.6666 27.0629 38.639 26.8221C38.7686 26.7905 38.9054 26.7905 39.039 26.7762L39.038 26.7752Z" fill="white"/>
<path d="M32.4006 25.0621C32.0077 25.2365 31.6057 25.3947 31.2221 25.5886C28.463 26.9824 25.9672 28.7792 23.5367 30.6659C21.7379 32.0617 19.99 33.5229 18.2207 34.9565C16.7412 36.1544 15.1402 37.1339 13.2954 37.6594C10.8109 38.3665 8.41608 38.0961 6.12436 36.9186C3.69081 35.6687 1.83274 33.7881 0.26445 31.5393C1.10522 31.7627 1.89906 32.0291 2.71331 32.1811C6.40904 32.8729 9.96192 32.2821 13.3689 30.8036C15.1106 30.0475 16.7636 29.0894 18.4901 28.2935C22.7939 26.311 27.2988 25.1121 32.0588 24.9774C32.1669 24.9743 32.2751 24.9774 32.3832 24.9774C32.3883 25.0049 32.3945 25.0325 32.3996 25.06L32.4006 25.0621Z" fill="white"/>
<path d="M75.9607 48.2058C76.0504 51.074 74.8709 53.1137 72.6863 54.6728C72.6333 54.6075 72.5904 54.5769 72.5812 54.5381C72.1762 52.7382 70.9487 51.8362 69.2181 51.5964C67.2856 51.3281 65.3408 51.1556 63.345 50.9352C63.6694 50.5638 64.0266 50.1557 64.4572 49.6628C60.7165 49.2139 57.8616 47.5854 56.6514 43.6795C62.6858 46.9426 69.0661 48.5782 75.9596 48.2058H75.9607Z" fill="white"/>
<path d="M69.6487 30.6169C71.1527 30.6169 72.5312 30.5291 73.8924 30.6465C74.8556 30.7301 75.8147 31.0322 76.7371 31.3515C77.3891 31.577 77.3708 31.678 77.0616 32.2801C75.8994 34.5412 75.5178 36.9737 75.4862 39.4807C75.4729 40.5164 75.4841 41.552 75.4841 42.6142C75.426 42.5316 75.3607 42.4499 75.3066 42.3622C74.4413 40.9786 73.1016 40.4562 71.568 40.4878C69.6324 40.5276 67.6998 40.699 65.7662 40.8184C65.1234 40.8582 64.4806 40.9092 63.8265 40.8837C64.7163 40.7082 65.6193 40.5837 66.4917 40.348C68.5212 39.7991 70.5538 39.2491 72.5465 38.5848C73.2057 38.3655 73.8567 37.889 74.3199 37.3625C75.5882 35.9217 74.7586 33.8126 72.8689 33.4759C72.5251 33.4147 72.171 33.2963 71.871 33.1208C70.9037 32.5556 70.2823 31.6699 69.6497 30.6179L69.6487 30.6169Z" fill="white"/>
<path d="M48.5232 24.2764C49.2997 24.1458 50.0742 23.9917 50.8548 23.8876C53.6536 23.5131 56.4586 23.2193 59.2911 23.3999C59.691 23.4254 59.9216 23.558 60.1073 23.9325C60.94 25.6171 61.3726 27.4038 61.5665 29.2588C61.5746 29.3353 61.5675 29.4128 61.5675 29.5547C59.0492 27.2119 55.9025 26.3681 52.7873 25.4671C51.3864 25.062 49.965 24.7274 48.5518 24.36C48.5416 24.3325 48.5324 24.3039 48.5222 24.2764H48.5232Z" fill="white"/>
</svg>
