<svg width="140" height="140" viewBox="0 0 140 140" fill="none" xmlns="http://www.w3.org/2000/svg">
<g clip-path="url(#clip0_65_76)">
<path d="M104 62H89.888C88.964 62 88.032 61.78 87.204 61.368L74.58 55.056C73.2 54.368 71.652 54 70.108 54H63.996C56.276 54 49.996 60.28 49.996 68V100C49.996 107.72 56.276 114 63.996 114H103.996C111.716 114 117.996 107.72 117.996 100V76C117.996 68.28 111.72 62 104 62ZM114 100C114 105.512 109.512 110 104 110H64C58.488 110 54 105.512 54 100V68C54 62.488 58.488 58 64 58H70.112C71.036 58 71.968 58.22 72.796 58.632L85.42 64.944C86.8 65.632 88.348 66 89.892 66H104.004C109.516 66 114.004 70.488 114.004 76L114 100ZM118 52V56C118 57.104 117.104 58 116 58C114.896 58 114 57.104 114 56V52C114 44.28 107.72 38 100 38H71.888C70.344 38 68.8 37.636 67.416 36.944L54.792 30.632C53.964 30.216 53.036 30 52.108 30H39.996C32.276 30 25.996 36.28 25.996 44V96C25.996 103.72 32.276 110 39.996 110C41.1 110 41.996 110.896 41.996 112C41.996 113.104 41.1 114 39.996 114C30.072 114 21.996 105.924 21.996 96V44C22 34.076 30.076 26 40 26H52.112C53.656 26 55.2 26.364 56.584 27.056L69.208 33.368C70.036 33.784 70.964 34 71.892 34H100.004C109.928 34 118 42.076 118 52Z" fill="#020101"/>
</g>
<defs>
<clipPath id="clip0_65_76">
<rect width="96" height="96" fill="white" transform="translate(22 22)"/>
</clipPath>
</defs>
</svg>
