<svg width="18" height="15" viewBox="0 0 18 15" fill="none" xmlns="http://www.w3.org/2000/svg">
<path d="M1.10355 6.54004C1.10355 6.54004 9.06452 3.27286 11.8255 2.1224C12.8839 1.66226 16.4733 0.18967 16.4733 0.18967C16.4733 0.18967 18.1299 -0.454531 17.9918 1.11002C17.9458 1.75429 17.5777 4.00909 17.2095 6.44801C16.6573 9.89932 16.0591 13.6727 16.0591 13.6727C16.0591 13.6727 15.9671 14.7311 15.1848 14.9152C14.4025 15.0992 13.114 14.271 12.8839 14.0869C12.6998 13.9488 9.43263 11.878 8.2362 10.8657C7.91406 10.5896 7.54595 10.0374 8.28218 9.39313C9.93882 7.87455 11.9175 5.98787 13.114 4.79143C13.6662 4.23919 14.2184 2.95073 11.9175 4.51528C8.65036 6.77014 5.42916 8.88694 5.42916 8.88694C5.42916 8.88694 4.69286 9.34708 3.31237 8.93292C1.93181 8.51882 0.321209 7.96658 0.321209 7.96658C0.321209 7.96658 -0.783137 7.27634 1.10355 6.54004Z" fill="white"/>
</svg>
