<svg width="140" height="140" viewBox="0 0 140 140" fill="none" xmlns="http://www.w3.org/2000/svg">
<g clip-path="url(#clip0_65_93)">
<path d="M70 118C43.532 118 22 96.468 22 70C22 43.532 43.532 22 70 22C96.468 22 118 43.532 118 70C118 96.468 96.468 118 70 118ZM70 26C45.74 26 26 45.74 26 70C26 94.26 45.74 114 70 114C94.26 114 114 94.26 114 70C114 45.74 94.26 26 70 26ZM70 102C52.356 102 38 87.644 38 70C38 52.356 52.356 38 70 38C87.644 38 102 52.356 102 70C102 87.644 87.644 102 70 102ZM70 42C54.56 42 42 54.56 42 70C42 85.44 54.56 98 70 98C85.44 98 98 85.44 98 70C98 54.56 85.44 42 70 42ZM70 86C61.176 86 54 78.824 54 70C54 61.176 61.176 54 70 54C78.824 54 86 61.176 86 70C86 78.824 78.824 86 70 86ZM70 58C63.384 58 58 63.384 58 70C58 76.616 63.384 82 70 82C76.616 82 82 76.616 82 70C82 63.384 76.616 58 70 58Z" fill="#020101"/>
</g>
<defs>
<clipPath id="clip0_65_93">
<rect width="96" height="96" fill="white" transform="translate(22 22)"/>
</clipPath>
</defs>
</svg>
