<svg width="140" height="140" viewBox="0 0 140 140" fill="none" xmlns="http://www.w3.org/2000/svg">
<g clip-path="url(#clip0_65_90)">
<path d="M99.332 33.76L104.412 35.556L106.104 40.632C106.376 41.448 107.144 42 108.004 42C108.864 42 109.628 41.448 109.904 40.632L111.588 35.58L116.64 33.896C117.456 33.624 118.008 32.86 118.008 32C118.008 31.14 117.456 30.376 116.64 30.104L111.588 28.42L109.904 23.368C109.356 21.736 106.656 21.736 106.108 23.368L104.432 28.396L99.408 29.968C98.588 30.224 98.02 30.976 98.004 31.84C97.988 32.704 98.52 33.476 99.332 33.76Z" fill="#020101"/>
<path d="M116.744 98.1439L106.112 93.8919L101.86 83.2599C101.26 81.7399 98.752 81.7399 98.148 83.2599L93.9 93.8719L83.296 97.8839C82.532 98.1759 82.02 98.8999 82.004 99.7159C81.988 100.532 82.472 101.28 83.228 101.596L93.888 106.088L98.148 116.74C98.448 117.5 99.188 117.996 100.004 117.996C100.82 117.996 101.56 117.496 101.86 116.74L106.112 106.108L116.744 101.856C117.504 101.552 118 100.816 118 99.9999C118 99.1839 117.504 98.4479 116.744 98.1439ZM103.828 102.716C103.32 102.92 102.916 103.324 102.716 103.832L100 110.616L97.284 103.832C97.088 103.336 96.7 102.94 96.204 102.732L89.384 99.8559L96.136 97.2999C96.66 97.0999 97.076 96.6919 97.284 96.1719L100 89.3879L102.716 96.1719C102.92 96.6799 103.32 97.0839 103.828 97.2879L110.612 100.004L103.828 102.716Z" fill="#020101"/>
<path d="M97.74 71.8359C100.328 71.0079 102 68.7159 102 65.9999C102 63.2839 100.328 60.9919 97.692 60.1479L74.624 53.3799L67.912 30.3439C67.12 27.7439 64.848 26.0399 62.132 26.0039C59.468 26.1159 57.104 27.6119 56.216 30.2559L49.38 53.3759L26.34 60.0919C23.74 60.8839 22.036 63.1559 22 65.8719C21.964 68.5879 23.608 70.8999 26.252 71.7879L49.38 78.6239L56.164 101.744C56.992 104.332 59.284 106.004 62 106.004C64.716 106.004 67.008 104.332 67.852 101.696L74.624 78.6279L97.692 71.8599L97.74 71.8439V71.8359ZM96.54 68.0199L72.452 75.0919C71.796 75.2839 71.288 75.7959 71.096 76.4479L64.032 100.52C63.592 101.892 62.368 102 62.004 102C61.64 102 60.416 101.892 59.992 100.568L52.912 76.4519C52.72 75.7999 52.212 75.2879 51.56 75.0959L27.46 67.9719C26.092 67.5159 26.004 66.2879 26.008 65.9239C26.012 65.5599 26.136 64.3359 27.492 63.9239L51.56 56.9119C52.216 56.7239 52.728 56.2119 52.92 55.5599L60.044 31.4599C60.492 30.1239 61.672 30.0079 62.064 30.0079H62.088C62.452 30.0119 63.676 30.1359 64.088 31.4919L71.1 55.5559C71.292 56.2119 71.8 56.7239 72.456 56.9159L96.528 63.9799C97.904 64.4199 98.008 65.6439 98.008 66.0079C98.008 66.3719 97.904 67.5839 96.548 68.0279L96.54 68.0199Z" fill="#020101"/>
</g>
<defs>
<clipPath id="clip0_65_90">
<rect width="96" height="96" fill="white" transform="translate(22 22)"/>
</clipPath>
</defs>
</svg>
