<svg width="69" height="68" viewBox="0 0 69 68" fill="none" xmlns="http://www.w3.org/2000/svg">
<g clip-path="url(#clip0_69_519)">
<path d="M34.5 68C53.2777 68 68.5 52.7777 68.5 34C68.5 15.2223 53.2777 0 34.5 0C15.7223 0 0.5 15.2223 0.5 34C0.5 52.7777 15.7223 68 34.5 68Z" fill="white" fill-opacity="0.04"/>
<path d="M16.9619 32.5231C16.9619 32.5231 31.1147 26.7148 36.0231 24.6695C37.9048 23.8515 44.2858 21.2336 44.2858 21.2336C44.2858 21.2336 47.2309 20.0883 46.9855 22.8697C46.9036 24.0151 46.2492 28.0236 45.5948 32.3595C44.613 38.4952 43.5495 45.2034 43.5495 45.2034C43.5495 45.2034 43.3859 47.085 41.9952 47.4122C40.6045 47.7394 38.3137 46.267 37.9048 45.9397C37.5775 45.6943 31.7691 42.0129 29.6421 40.2131C29.0694 39.7223 28.415 38.7406 29.7239 37.5953C32.669 34.8956 36.1867 31.5415 38.3137 29.4145C39.2955 28.4327 40.2771 26.1421 36.1867 28.9235C30.3784 32.9322 24.6518 36.6954 24.6518 36.6954C24.6518 36.6954 23.3429 37.5134 20.8887 36.7771C18.4343 36.0409 15.571 35.0592 15.571 35.0592C15.571 35.0592 13.6078 33.8321 16.9619 32.5231Z" fill="#9CBDC9"/>
</g>
<defs>
<clipPath id="clip0_69_519">
<rect width="68" height="68" fill="white" transform="translate(0.5)"/>
</clipPath>
</defs>
</svg>
