<svg width="69" height="68" viewBox="0 0 69 68" fill="none" xmlns="http://www.w3.org/2000/svg">
<rect x="0.5" width="68" height="68" rx="34" fill="white" fill-opacity="0.04"/>
<path fill-rule="evenodd" clip-rule="evenodd" d="M31.8333 34.0002C31.8333 32.5274 33.0272 31.3335 34.5 31.3335C35.9728 31.3335 37.1667 32.5274 37.1667 34.0002C37.1667 35.4729 35.9728 36.6668 34.5 36.6668C33.0272 36.6668 31.8333 35.4729 31.8333 34.0002Z" fill="#9CBDC9"/>
<path fill-rule="evenodd" clip-rule="evenodd" d="M41.1667 34.0002C41.1667 32.5274 42.3606 31.3335 43.8333 31.3335C45.3061 31.3335 46.5 32.5274 46.5 34.0002C46.5 35.4729 45.3061 36.6668 43.8333 36.6668C42.3606 36.6668 41.1667 35.4729 41.1667 34.0002Z" fill="#9CBDC9"/>
<path fill-rule="evenodd" clip-rule="evenodd" d="M22.5 34.0002C22.5 32.5274 23.6939 31.3335 25.1667 31.3335C26.6394 31.3335 27.8333 32.5274 27.8333 34.0002C27.8333 35.4729 26.6394 36.6668 25.1667 36.6668C23.6939 36.6668 22.5 35.4729 22.5 34.0002Z" fill="#9CBDC9"/>
</svg>
