<svg width="69" height="68" viewBox="0 0 69 68" fill="none" xmlns="http://www.w3.org/2000/svg">
<g clip-path="url(#clip0_69_527)">
<path d="M34.5 68C53.2777 68 68.5 52.7777 68.5 34C68.5 15.2223 53.2777 0 34.5 0C15.7223 0 0.5 15.2223 0.5 34C0.5 52.7777 15.7223 68 34.5 68Z" fill="white" fill-opacity="0.04"/>
<path d="M34.7833 50.1499C43.8592 50.1499 51.2167 42.7924 51.2167 33.7165C51.2167 24.6407 43.8592 17.2832 34.7833 17.2832C25.7075 17.2832 18.35 24.6407 18.35 33.7165C18.35 42.7924 25.7075 50.1499 34.7833 50.1499Z" stroke="#9CBDC9" stroke-width="2.91667"/>
<path d="M19.7666 43.0666L17.16 52.3032L26.7367 49.6399L27.2466 46.6932L23 46.5L22.6566 42.7266L19.7666 43.0666Z" fill="#9CBDC9"/>
<path d="M27.6819 25.5752C27.1033 25.9766 26.6101 26.4889 26.2307 27.0822C25.8514 27.6755 25.5935 28.3382 25.4719 29.0318C25.1886 31.2418 26.5486 33.5085 26.5486 33.5085C27.9281 35.561 29.566 37.4274 31.4219 39.0618C33.0454 40.3465 34.8886 41.3257 36.8619 41.9518C38.013 42.4114 39.2721 42.5294 40.4886 42.2918C41.5668 41.9959 42.5206 41.3599 43.2085 40.4785C43.3697 40.0775 43.4839 39.6591 43.5486 39.2318C43.6134 38.8568 43.6134 38.4735 43.5486 38.0985C43.4919 37.7018 39.4119 35.8318 39.0153 35.9452C38.6186 36.0585 38.2785 36.7952 37.8252 37.4185C37.3719 38.0418 37.2019 38.3252 36.7486 38.3252C36.2953 38.3252 34.3119 37.5318 32.4419 35.8318C31.3738 34.9057 30.539 33.7409 30.0052 32.4318C30.0052 32.4318 30.3453 32.0352 30.7986 31.4118C31.1513 31.0253 31.4042 30.5584 31.5352 30.0518C31.5352 29.7685 29.9485 25.7452 29.5519 25.5752C28.9316 25.488 28.3022 25.488 27.6819 25.5752Z" fill="#9CBDC9"/>
</g>
<defs>
<clipPath id="clip0_69_527">
<rect width="68" height="68" fill="white" transform="translate(0.5)"/>
</clipPath>
</defs>
</svg>
