<svg width="40" height="41" viewBox="0 0 40 41" fill="none" xmlns="http://www.w3.org/2000/svg">
<rect x="0.5" y="0.646973" width="39" height="39" rx="19.5" stroke="white"/>
<g clip-path="url(#clip0_66_236)">
<path d="M13.9231 12.1606C12.8603 12.1606 12.0002 13.0224 12 14.0827C12 15.144 12.8602 16.0056 13.9232 16.0056C14.9834 16.0056 15.8447 15.144 15.8447 14.0827C15.8447 13.0222 14.9832 12.1606 13.9231 12.1606Z" fill="white"/>
<path d="M12.2644 17.4639H15.5805V28.1329H12.2644V17.4639Z" fill="white"/>
<path d="M24.0224 17.1987C22.4093 17.1987 21.3277 18.0831 20.8849 18.9218H20.8406V17.464H17.6602H17.66V28.1329H20.9731V22.855C20.9731 21.4635 21.2381 20.1157 22.9632 20.1157C24.6637 20.1157 24.6864 21.7071 24.6864 22.9442V28.1328H28V22.2809C28 19.4084 27.3802 17.1987 24.0224 17.1987Z" fill="white"/>
</g>
<defs>
<clipPath id="clip0_66_236">
<rect width="16" height="16" fill="white" transform="translate(12 12.147)"/>
</clipPath>
</defs>
</svg>
