<svg width="68" height="68" viewBox="0 0 68 68" fill="none" xmlns="http://www.w3.org/2000/svg">
<g clip-path="url(#clip0_65_126)">
<path d="M67.5863 67.5863C67.3087 67.864 66.946 68 66.5833 68C66.2207 68 65.858 67.8612 65.5803 67.5863L47.3082 49.3142C42.279 53.8673 35.6348 56.6695 28.3333 56.6695C12.7103 56.6667 0 43.9563 0 28.3333C0 12.7103 12.7103 0 28.3333 0C34.6998 0 40.7122 2.06267 45.7272 5.96417C46.3448 6.443 46.4553 7.3355 45.9737 7.95317C45.492 8.57083 44.6023 8.68133 43.9847 8.19967C39.4768 4.68917 34.0652 2.83333 28.3362 2.83333C14.2715 2.83333 2.83333 14.2743 2.83333 28.3333C2.83333 33.0197 4.12533 37.4028 6.34383 41.1797L19.7058 25.3555C20.4397 24.4885 21.5107 23.9643 22.6412 23.9162C23.7717 23.8652 24.8852 24.2987 25.6898 25.1033L31.5548 30.9683C31.8013 31.212 32.1385 31.3253 32.4728 31.3282C32.8185 31.3168 33.133 31.1638 33.3568 30.906L59.8485 0.487333C60.3613 -0.102 61.2538 -0.164333 61.846 0.3485C62.4353 0.861333 62.4977 1.75667 61.9848 2.346L35.4988 32.7675C34.765 33.6147 33.6968 34.1247 32.5748 34.1615C31.4557 34.2068 30.3507 33.7677 29.5545 32.9743L23.6895 27.1065C23.4402 26.8572 23.1285 26.7325 22.763 26.7467C22.4145 26.7608 22.1 26.9167 21.8733 27.183L8.01267 43.6588C12.6707 49.8213 20.0317 53.8305 28.3362 53.8305C42.398 53.8305 53.8362 42.3895 53.8362 28.3305C53.8362 26.0497 53.5387 23.7915 52.9465 21.6183C52.7425 20.8618 53.1873 20.0855 53.9438 19.8787C54.7117 19.6718 55.4767 20.1195 55.6807 20.8732C56.338 23.2872 56.6723 25.7947 56.6723 28.3277C56.6723 35.6292 53.8702 42.2733 49.317 47.3025L67.5892 65.5747C68.1417 66.1272 68.1417 67.0253 67.5892 67.5778L67.5863 67.5863Z" fill="#9CBDC9"/>
</g>
<defs>
<clipPath id="clip0_65_126">
<rect width="68" height="68" fill="white"/>
</clipPath>
</defs>
</svg>
