<svg width="68" height="68" viewBox="0 0 68 68" fill="none" xmlns="http://www.w3.org/2000/svg">
<g clip-path="url(#clip0_65_144)">
<path d="M28.092 34.2522L0.934548 44.0895C0.478381 44.2538 0.138381 44.642 0.0335481 45.1152C-0.0712853 45.5883 0.0732147 46.0813 0.416048 46.4242L9.99555 56.0037L0.450048 65.5463C-0.102452 66.0988 -0.102452 66.997 0.450048 67.5495C0.727715 67.8272 1.09038 67.9632 1.45305 67.9632C1.81571 67.9632 2.17838 67.8243 2.45605 67.5495L11.9987 58.0068L21.5782 67.5863C21.8474 67.8555 22.21 68 22.5812 68C22.6832 68 22.7852 67.9887 22.8872 67.966C23.3604 67.8583 23.7485 67.5212 23.91 67.065L33.7474 39.9047L33.7559 39.8792C34.3084 38.2642 33.9032 36.5103 32.6962 35.3033C31.4835 34.0935 29.7325 33.6883 28.0949 34.2493L28.092 34.2522ZM31.0784 38.9555L22.006 64.0078L3.99171 45.9935L29.0327 36.924C29.6277 36.7228 30.2454 36.8645 30.6902 37.3093C31.1294 37.7485 31.2739 38.3633 31.0784 38.9555ZM67.9995 28.3333C67.9995 43.9563 55.2892 56.6667 39.6662 56.6667C38.173 56.6667 36.6685 56.5477 35.1952 56.3153C34.4245 56.1935 33.8947 55.4682 34.0165 54.6947C34.1384 53.9212 34.8835 53.3828 35.6372 53.516C36.966 53.7257 38.3204 53.8305 39.6662 53.8305C53.728 53.8305 65.1662 42.3895 65.1662 28.3305C65.1662 14.2715 53.728 2.83333 39.6662 2.83333C25.6044 2.83333 14.1662 14.2743 14.1662 28.3333C14.1662 29.6848 14.271 31.0392 14.4807 32.3623C14.6025 33.1358 14.0727 33.8612 13.302 33.983C12.5427 34.1048 11.8032 33.5778 11.6814 32.8043C11.449 31.3338 11.3329 29.8322 11.3329 28.3333C11.3329 12.7103 24.0432 0 39.6662 0C55.2892 0 67.9995 12.7103 67.9995 28.3333ZM53.8329 28.3333C53.8329 20.5218 47.4777 14.1667 39.6662 14.1667C32.2854 14.1667 26.2164 19.703 25.559 27.0442C25.4882 27.8233 24.777 28.3957 24.0205 28.3277C23.2442 28.2568 22.6662 27.5683 22.737 26.7892C23.5275 17.9775 30.8092 11.3333 39.669 11.3333C49.0445 11.3333 56.669 18.9578 56.669 28.3333C56.669 37.1903 50.0249 44.4692 41.2132 45.2653C41.1679 45.2682 41.1282 45.271 41.0829 45.271C40.3575 45.271 39.7399 44.7185 39.6747 43.9818C39.6067 43.2027 40.1791 42.5142 40.9582 42.4433C48.2994 41.7803 53.8357 35.7142 53.8357 28.3362L53.8329 28.3333Z" fill="#9CBDC9"/>
</g>
<defs>
<clipPath id="clip0_65_144">
<rect width="68" height="68" fill="white"/>
</clipPath>
</defs>
</svg>
