<svg width="68" height="68" viewBox="0 0 68 68" fill="none" xmlns="http://www.w3.org/2000/svg">
<path d="M63.7083 65H9.45833C5.8985 65 3 62.1041 3 58.5417V4.29167C3 3.57867 3.57867 3 4.29167 3C5.00467 3 5.58333 3.57867 5.58333 4.29167V58.5417C5.58333 60.6781 7.32192 62.4167 9.45833 62.4167H63.7083C64.4213 62.4167 65 62.9953 65 63.7083C65 64.4213 64.4213 65 63.7083 65ZM36.5833 36.5833C36.5833 38.0093 37.7407 39.1667 39.1667 39.1667C40.5927 39.1667 41.75 38.0093 41.75 36.5833C41.75 35.1573 40.5927 34 39.1667 34C37.7407 34 36.5833 35.1573 36.5833 36.5833ZM52.0833 21.0833C52.0833 22.5093 53.2407 23.6667 54.6667 23.6667C56.0927 23.6667 57.25 22.5093 57.25 21.0833C57.25 19.6573 56.0927 18.5 54.6667 18.5C53.2407 18.5 52.0833 19.6573 52.0833 21.0833ZM28.8333 49.5C28.8333 50.926 29.9907 52.0833 31.4167 52.0833C32.8427 52.0833 34 50.926 34 49.5C34 48.074 32.8427 46.9167 31.4167 46.9167C29.9907 46.9167 28.8333 48.074 28.8333 49.5ZM52.0833 46.9167C52.0833 48.3427 53.2407 49.5 54.6667 49.5C56.0927 49.5 57.25 48.3427 57.25 46.9167C57.25 45.4907 56.0927 44.3333 54.6667 44.3333C53.2407 44.3333 52.0833 45.4907 52.0833 46.9167ZM23.6667 15.9167C23.6667 17.3427 24.824 18.5 26.25 18.5C27.676 18.5 28.8333 17.3427 28.8333 15.9167C28.8333 14.4907 27.676 13.3333 26.25 13.3333C24.824 13.3333 23.6667 14.4907 23.6667 15.9167ZM13.3333 34C13.3333 35.426 14.4907 36.5833 15.9167 36.5833C17.3427 36.5833 18.5 35.426 18.5 34C18.5 32.574 17.3427 31.4167 15.9167 31.4167C14.4907 31.4167 13.3333 32.574 13.3333 34Z" fill="#9CBDC9"/>
</svg>
