<svg width="40" height="41" viewBox="0 0 40 41" fill="none" xmlns="http://www.w3.org/2000/svg">
<rect x="0.5" y="0.646973" width="39" height="39" rx="19.5" stroke="white"/>
<g clip-path="url(#clip0_66_240)">
<path d="M24.1275 11.147H15.8724C13.1857 11.147 11 13.3327 11 16.0194V24.2746C11 26.9612 13.1857 29.1469 15.8724 29.1469H24.1277C26.8142 29.1469 29 26.9612 29 24.2746V16.0194C29 13.3327 26.8142 11.147 24.1275 11.147ZM27.9447 24.2746C27.9447 26.3794 26.2324 28.0917 24.1275 28.0917H15.8724C13.7676 28.0917 12.0552 26.3794 12.0552 24.2746V16.0194C12.0552 13.9146 13.7676 12.2022 15.8724 12.2022H24.1277C26.2324 12.2022 27.9447 13.9146 27.9447 16.0194V24.2746Z" fill="white"/>
<path d="M20 15.2251C17.2861 15.2251 15.0782 17.4329 15.0782 20.1468C15.0782 22.8607 17.2861 25.0686 20 25.0686C22.7139 25.0686 24.9217 22.8607 24.9217 20.1468C24.9217 17.4329 22.7139 15.2251 20 15.2251ZM20 24.0133C17.8681 24.0133 16.1335 22.2789 16.1335 20.1468C16.1335 18.0149 17.8681 16.2803 20 16.2803C22.132 16.2803 23.8665 18.0149 23.8665 20.1468C23.8665 22.2789 22.132 24.0133 20 24.0133Z" fill="white"/>
<path d="M25.0394 13.4775C24.2374 13.4775 23.5851 14.13 23.5851 14.9319C23.5851 15.7339 24.2374 16.3863 25.0394 16.3863C25.8414 16.3863 26.4938 15.7339 26.4938 14.9319C26.4938 14.1299 25.8414 13.4775 25.0394 13.4775ZM25.0394 15.3309C24.8194 15.3309 24.6403 15.1519 24.6403 14.9319C24.6403 14.7117 24.8194 14.5328 25.0394 14.5328C25.2595 14.5328 25.4386 14.7117 25.4386 14.9319C25.4386 15.1519 25.2595 15.3309 25.0394 15.3309Z" fill="white"/>
</g>
<defs>
<clipPath id="clip0_66_240">
<rect width="18" height="18" fill="white" transform="translate(11 11.147)"/>
</clipPath>
</defs>
</svg>
