<svg width="69" height="68" viewBox="0 0 69 68" fill="none" xmlns="http://www.w3.org/2000/svg">
<g clip-path="url(#clip0_69_511)">
<path fill-rule="evenodd" clip-rule="evenodd" d="M34.5 0C53.2777 0 68.5 15.2223 68.5 34C68.5 52.7777 53.2777 68 34.5 68C15.7223 68 0.5 52.7777 0.5 34C0.5 15.2223 15.7223 0 34.5 0Z" fill="white" fill-opacity="0.04"/>
<path d="M42.8194 20.9243H47.2555L37.5637 32.0018L48.9657 47.0754H40.0378L33.0456 37.9331L25.0447 47.0754H20.6057L30.972 35.2269L20.0343 20.9243H29.1883L35.5089 29.2805L42.8194 20.9243ZM41.2623 44.4199H43.7206L27.8527 23.4403H25.2151L41.2623 44.4199Z" fill="#9CBDC9"/>
</g>
<defs>
<clipPath id="clip0_69_511">
<rect width="68" height="68" fill="white" transform="translate(0.5)"/>
</clipPath>
</defs>
</svg>
