<svg width="162" height="31" viewBox="0 0 162 31" fill="none" xmlns="http://www.w3.org/2000/svg">
<g clip-path="url(#clip0_69_332)">
<path fill-rule="evenodd" clip-rule="evenodd" d="M15.8946 10.8336C16.8051 10.376 17.9635 9.70237 19.1233 8.77947C19.3679 9.29137 19.3946 9.73807 19.2687 10.0988C19.1794 10.353 19.0111 10.5741 18.7899 10.75C18.5503 10.9401 18.2511 11.0785 17.9203 11.1533C17.2928 11.2958 16.56 11.2126 15.8946 10.8336ZM16.0525 15.5222L17.2576 16.2239C14.7969 17.6141 14.128 20.1955 13.3333 22.7098C12.5388 20.1955 11.8697 17.6141 9.40913 16.2239L10.6143 15.5222C10.7309 15.4778 10.8305 15.3973 10.899 15.2923C10.9674 15.1873 11.0011 15.0632 10.9952 14.9377C10.8848 12.583 11.5156 11.5417 12.3664 10.8879C12.6715 10.6537 13.0047 10.5361 13.3333 10.5361C13.662 10.5361 13.9951 10.6537 14.3004 10.8879C15.1512 11.5417 15.7819 12.583 15.6715 14.9377C15.6657 15.0632 15.6994 15.1873 15.7678 15.2923C15.8363 15.3973 15.9359 15.4778 16.0525 15.5222ZM13.3333 0.146973C14.7264 0.184673 16.1229 0.457273 17.3349 0.987573C18.1742 1.35527 18.9573 1.84097 19.6665 2.42177C19.9867 2.68397 20.2504 2.93727 20.5409 3.22887C21.3243 3.25617 22.4692 2.37887 23.0008 1.55797C22.086 4.58097 17.9116 8.15087 15.0216 9.51687C15.0204 9.51637 15.0196 9.51567 15.0188 9.51507C14.5001 9.11587 13.9168 8.91627 13.3333 8.91627C12.7499 8.91627 12.1667 9.11587 11.648 9.51507C11.6471 9.51557 11.6463 9.51647 11.6451 9.51687C8.75506 8.15087 4.58076 4.58097 3.66597 1.55797C4.19742 2.37887 5.34236 3.25617 6.1258 3.22887C6.41637 2.93737 6.68006 2.68397 7.0002 2.42177C7.70933 1.84097 8.49246 1.35527 9.33175 0.987573C10.5439 0.457273 11.9404 0.184673 13.3333 0.146973ZM10.772 10.8336C9.86171 10.376 8.70318 9.70237 7.54345 8.77947C7.29891 9.29137 7.27212 9.73807 7.39802 10.0988C7.4874 10.353 7.65566 10.5741 7.87679 10.75C8.11647 10.9401 8.41568 11.0785 8.74643 11.1533C9.37401 11.2958 10.1066 11.2126 10.772 10.8336Z" fill="white"/>
<path fill-rule="evenodd" clip-rule="evenodd" d="M20.3936 7.64857C21.0321 6.99907 21.5946 6.28017 22.047 5.63867L22.2768 6.07457C23.0165 7.56627 23.4008 9.05197 23.4008 10.724L23.3992 13.3772L23.4131 14.7526C23.4667 18.1292 24.1915 21.5455 25.8333 24.6719L22.3981 21.8797L19.9675 25.8556L17.4139 23.4325L13.3333 30.1074L9.25278 23.4326L6.69931 25.8557L4.26865 21.8798L0.833336 24.672C2.4752 21.5456 3.2 18.1293 3.25367 14.7527L3.26756 13.3773L3.26598 10.7241C3.26598 9.05197 3.6502 7.56627 4.39008 6.07467L4.61975 5.63877C5.07213 6.28027 5.63463 6.99907 6.27322 7.64867L6.07381 8.06617C5.68641 8.87707 5.55814 9.78377 5.85992 10.6461C6.05447 11.2015 6.40953 11.6778 6.86727 12.0414C7.31171 12.3945 7.8377 12.6325 8.3884 12.7575C8.74713 12.8389 9.1126 12.8724 9.4757 12.861C9.39098 13.3451 9.35397 13.8472 9.35159 14.3588L6.11111 16.2454L8.61171 17.6583C8.81158 17.7712 9.00184 17.9006 9.18056 18.0452C11.2422 19.911 12.4817 25.4307 13.3334 28.1268C14.1853 25.4307 15.4247 19.911 17.4864 18.0452C17.6651 17.9006 17.8554 17.7712 18.0553 17.6583L20.5559 16.2454L17.3153 14.3588C17.3129 13.8472 17.2759 13.3451 17.1912 12.861C17.5543 12.8724 17.9197 12.8389 18.2785 12.7575C18.8292 12.6325 19.3553 12.3945 19.7996 12.0414C20.2572 11.6778 20.6124 11.2015 20.8069 10.6461C21.1087 9.78377 20.9804 8.87717 20.5931 8.06617L20.3937 7.64867L20.3936 7.64857Z" fill="white"/>
</g>
<path d="M151.825 21.3867V8.38672H157.081C157.886 8.38672 158.591 8.5291 159.198 8.81386C159.817 9.08624 160.3 9.48243 160.647 10.0024C160.993 10.5101 161.167 11.1229 161.167 11.841V12.0453C161.167 12.8996 160.962 13.5743 160.554 14.0696C160.145 14.5648 159.662 14.8991 159.105 15.0724V15.3324C159.551 15.3448 159.916 15.4934 160.201 15.7781C160.498 16.0505 160.647 16.4653 160.647 17.0224V21.3867H159.105V17.2081C159.105 16.8367 159 16.552 158.789 16.3539C158.591 16.1558 158.288 16.0567 157.879 16.0567H153.385V21.3867H151.825ZM153.385 14.6453H156.932C157.787 14.6453 158.443 14.441 158.901 14.0324C159.371 13.6115 159.607 13.0296 159.607 12.2867V12.1567C159.607 11.4139 159.378 10.8381 158.919 10.4296C158.461 10.0086 157.799 9.79815 156.932 9.79815H153.385V14.6453Z" fill="white"/>
<path d="M141.361 21.3867V8.38672H149.365V9.79815H142.921V14.1439H148.845V15.5553H142.921V19.9753H149.458V21.3867H141.361Z" fill="white"/>
<path d="M129.028 21.3867V8.38672H132.055L136.587 20.4024H136.828V8.38672H138.37V21.3867H135.342L130.83 9.35243H130.57V21.3867H129.028Z" fill="white"/>
<path d="M118.564 21.3867V8.38672H126.568V9.79815H120.124V14.1439H126.048V15.5553H120.124V19.9753H126.661V21.3867H118.564Z" fill="white"/>
<path d="M108.099 21.3867V8.38672H116.103V9.79815H109.659V14.1439H115.583V15.5553H109.659V19.9753H116.196V21.3867H108.099Z" fill="white"/>
<path d="M96.383 21.3867V8.38672H101.639C102.443 8.38672 103.149 8.5291 103.756 8.81386C104.375 9.08624 104.858 9.48243 105.204 10.0024C105.551 10.5101 105.724 11.1229 105.724 11.841V12.0453C105.724 12.8996 105.52 13.5743 105.112 14.0696C104.703 14.5648 104.22 14.8991 103.663 15.0724V15.3324C104.109 15.3448 104.474 15.4934 104.759 15.7781C105.056 16.0505 105.204 16.4653 105.204 17.0224V21.3867H103.663V17.2081C103.663 16.8367 103.558 16.552 103.347 16.3539C103.149 16.1558 102.846 16.0567 102.437 16.0567H97.943V21.3867H96.383ZM97.943 14.6453H101.49C102.344 14.6453 103.001 14.441 103.459 14.0324C103.929 13.6115 104.164 13.0296 104.164 12.2867V12.1567C104.164 11.4139 103.935 10.8381 103.477 10.4296C103.019 10.0086 102.357 9.79815 101.49 9.79815H97.943V14.6453Z" fill="white"/>
<path d="M89.1661 21.647C87.6185 21.647 86.3866 21.2012 85.4704 20.3098C84.5542 19.406 84.0961 18.0936 84.0961 16.3727V13.4012C84.0961 11.6803 84.5542 10.3741 85.4704 9.48267C86.3866 8.57886 87.6185 8.12695 89.1661 8.12695C90.7014 8.12695 91.8775 8.5541 92.6947 9.40838C93.5242 10.2627 93.939 11.4327 93.939 12.9184V13.0112H92.3975V12.8627C92.3975 11.8846 92.1314 11.086 91.599 10.467C91.079 9.83553 90.268 9.51981 89.1661 9.51981C88.0642 9.51981 87.2037 9.86029 86.5847 10.5412C85.9656 11.2098 85.6561 12.1508 85.6561 13.3641V16.4098C85.6561 17.6231 85.9656 18.5703 86.5847 19.2512C87.2037 19.9198 88.0642 20.2541 89.1661 20.2541C90.268 20.2541 91.079 19.9446 91.599 19.3255C92.1314 18.6941 92.3975 17.8893 92.3975 16.9112V16.6141H93.939V16.8555C93.939 18.3412 93.5242 19.5112 92.6947 20.3655C91.8775 21.2198 90.7014 21.647 89.1661 21.647Z" fill="white"/>
<path d="M77.4052 21.647C76.4642 21.647 75.6223 21.4798 74.8794 21.1455C74.1366 20.8112 73.5485 20.3098 73.1152 19.6412C72.6942 18.9603 72.4837 18.1122 72.4837 17.097V16.707H74.0252V17.097C74.0252 18.1741 74.3409 18.9789 74.9723 19.5112C75.6037 20.0312 76.4147 20.2912 77.4052 20.2912C78.4204 20.2912 79.1942 20.0622 79.7266 19.6041C80.259 19.146 80.5252 18.5703 80.5252 17.877C80.5252 17.3941 80.4013 17.0103 80.1537 16.7255C79.9185 16.4408 79.5842 16.2117 79.1509 16.0384C78.7175 15.8527 78.2099 15.6917 77.628 15.5555L76.6623 15.3141C75.9071 15.116 75.2385 14.8746 74.6566 14.5898C74.0747 14.3051 73.6166 13.9336 73.2823 13.4755C72.9604 13.005 72.7994 12.4046 72.7994 11.6741C72.7994 10.9436 72.979 10.3122 73.338 9.77981C73.7094 9.24743 74.2233 8.83886 74.8794 8.5541C75.548 8.26933 76.3156 8.12695 77.1823 8.12695C78.0613 8.12695 78.8475 8.28172 79.5409 8.59124C80.2466 8.88838 80.7975 9.3341 81.1937 9.92838C81.6023 10.5103 81.8066 11.247 81.8066 12.1384V12.9184H80.2652V12.1384C80.2652 11.507 80.129 10.9993 79.8566 10.6155C79.5966 10.2317 79.2313 9.94695 78.7609 9.76124C78.3028 9.57553 77.7766 9.48267 77.1823 9.48267C76.328 9.48267 75.6409 9.67457 75.1209 10.0584C74.6009 10.4298 74.3409 10.9622 74.3409 11.6555C74.3409 12.1136 74.4523 12.4851 74.6752 12.7698C74.898 13.0546 75.2137 13.2898 75.6223 13.4755C76.0309 13.6489 76.5199 13.8036 77.0894 13.9398L78.0552 14.1812C78.8104 14.3422 79.4852 14.5651 80.0794 14.8498C80.6861 15.1222 81.169 15.4998 81.528 15.9827C81.8871 16.4531 82.0666 17.0722 82.0666 17.8398C82.0666 18.6074 81.8747 19.276 81.4909 19.8455C81.1071 20.4151 80.5623 20.8608 79.8566 21.1827C79.1632 21.4922 78.3461 21.647 77.4052 21.647Z" fill="white"/>
<path d="M55.389 21.3867L59.3076 14.831L55.4448 8.38672H57.989L60.7562 13.2524H61.0719L63.8205 8.38672H66.3833L62.5205 14.831L66.4205 21.3867H63.8762L61.0719 16.4096H60.7562L57.9519 21.3867H55.389Z" fill="white"/>
<path d="M45.9053 21.3867V8.38672H54.1881V10.411H48.1524V13.8281H53.6681V15.8524H48.1524V19.3624H54.281V21.3867H45.9053Z" fill="white"/>
<path d="M33.1274 21.3867V19.4181H34.8731V10.3553H33.1274V8.38672H38.4203C40.1536 8.38672 41.4784 8.82624 42.3945 9.70529C43.3107 10.5843 43.7688 11.9029 43.7688 13.661V16.1124C43.7688 17.8705 43.3107 19.1891 42.3945 20.0681C41.4784 20.9472 40.1536 21.3867 38.4203 21.3867H33.1274ZM37.1017 19.3624H38.4388C39.4912 19.3624 40.2712 19.0901 40.7788 18.5453C41.2864 18.0005 41.5403 17.2143 41.5403 16.1867V13.6053C41.5403 12.5529 41.2864 11.7605 40.7788 11.2281C40.2712 10.6834 39.4912 10.411 38.4388 10.411H37.1017V19.3624Z" fill="white"/>
<defs>
<clipPath id="clip0_69_332">
<rect width="25" height="30" fill="white" transform="translate(0.833336 0.146973)"/>
</clipPath>
</defs>
</svg>
